<svg width="2048" height="2048" viewBox="0 0 2048 2048" fill="none" xmlns="http://www.w3.org/2000/svg">
<circle cx="1023.5" cy="1023.5" r="969.5" fill="#1A237E"/>
<g clip-path="url(#clip0)">
<path d="M1746.82 948.204C1744.39 934.268 1732.27 923.361 1718.34 922.755C1717.73 922.755 1715.31 922.755 1714.7 922.755H1686.83C1663.2 922.755 1638.96 922.755 1614.72 922.755C1599.58 859.739 1574.73 800.358 1540.8 744.613L1549.28 736.13C1570.49 714.922 1591.7 693.109 1613.51 672.508C1624.42 662.207 1625.63 645.241 1617.15 633.122C1569.28 566.47 1511.11 508.907 1444.46 461.039C1432.34 452.556 1415.37 453.768 1405.07 464.675C1393.56 476.793 1381.44 488.306 1369.93 499.819C1357.2 511.937 1345.09 524.662 1332.97 537.386C1277.22 503.454 1217.24 479.217 1154.22 464.069C1154.22 455.586 1154.22 446.497 1154.22 438.014V423.472C1154.22 422.26 1154.22 421.048 1154.22 419.836V402.264C1154.22 389.54 1154.22 376.21 1154.22 361.667C1154.22 346.519 1143.31 333.795 1128.77 331.371C1050 318.647 968.2 318.647 889.43 331.371C874.282 333.795 863.375 347.731 863.981 363.485C864.587 376.21 864.587 389.54 863.981 402.264V419.836C863.981 421.048 863.981 422.26 863.981 423.472V438.014C863.981 447.103 863.981 455.586 863.981 464.069C800.965 479.217 740.978 503.454 685.233 537.386C673.114 524.662 660.39 512.543 648.271 499.819C636.759 488.306 624.64 476.187 613.128 464.675C602.827 453.768 585.861 452.556 573.742 461.039C507.09 508.907 448.922 567.076 401.053 633.122C391.964 645.241 393.782 662.207 404.689 672.508C426.502 693.715 447.71 714.922 468.917 736.13L477.4 744.613C443.468 799.752 418.625 859.739 403.477 922.755C379.24 922.149 355.003 922.149 331.372 922.755H303.499C302.893 922.755 300.47 922.755 299.864 922.755C285.321 923.361 273.203 934.268 271.385 948.204C264.72 988.195 261.69 1029.4 261.69 1070.6C261.69 1111.2 264.72 1152.4 271.385 1192.39C273.809 1206.33 284.716 1216.63 298.652 1217.84C301.076 1217.84 304.105 1218.45 306.529 1218.45C327.13 1218.45 347.126 1218.45 367.727 1218.45C379.846 1218.45 391.964 1218.45 404.083 1218.45C419.231 1282.07 444.68 1342.66 479.218 1398.41C465.282 1411.74 451.345 1425.67 438.015 1439.61L414.99 1462.64C411.354 1466.27 408.325 1469.3 405.901 1471.72C396.206 1482.63 394.994 1498.38 403.477 1509.9C451.345 1575.94 508.908 1632.9 574.954 1680.77C586.467 1689.25 602.827 1688.04 613.128 1678.34C614.339 1677.13 615.551 1675.92 616.157 1675.32C630.093 1660.77 644.03 1646.84 657.966 1632.9C667.055 1623.81 676.75 1614.12 685.839 1605.03C741.584 1638.96 801.571 1663.8 865.193 1678.95C865.193 1695.92 865.193 1712.88 865.193 1730.45C865.193 1746.81 865.193 1762.57 865.193 1779.53C865.193 1780.14 865.193 1783.17 865.193 1783.78C865.799 1797.71 876.705 1809.83 890.642 1811.65C929.421 1817.71 970.018 1821.34 1010.01 1821.34C1050 1821.34 1089.99 1818.31 1129.38 1811.65C1143.31 1809.23 1154.22 1797.71 1154.83 1783.78C1154.83 1783.17 1154.83 1779.53 1154.83 1778.93C1154.83 1762.57 1154.83 1746.81 1154.83 1730.45C1154.83 1713.49 1154.83 1696.52 1154.83 1678.95C1218.45 1663.8 1278.43 1638.96 1334.18 1605.03C1343.27 1614.72 1352.96 1623.81 1362.05 1632.9C1375.99 1646.84 1389.92 1660.77 1403.86 1674.71C1405.07 1675.92 1406.28 1677.13 1407.5 1678.34C1418.4 1688.04 1434.16 1689.25 1445.67 1680.77C1511.72 1633.51 1569.89 1575.94 1617.15 1509.9C1625.63 1498.38 1624.42 1482.02 1614.72 1471.72C1612.3 1469.3 1609.27 1465.66 1605.63 1462.64L1582.61 1439.61C1569.28 1426.28 1555.34 1412.34 1541.41 1398.41C1575.94 1342.66 1600.79 1282.07 1616.54 1218.45C1628.66 1218.45 1640.78 1218.45 1652.9 1218.45C1673.5 1218.45 1693.49 1218.45 1713.49 1218.45C1716.52 1218.45 1719.55 1218.45 1721.97 1218.45C1735.91 1217.24 1746.82 1206.93 1749.24 1193C1755.9 1153.01 1758.93 1112.41 1758.93 1071.21C1756.51 1029.4 1753.48 988.801 1746.82 948.204ZM1690.46 1156.64C1677.13 1156.64 1663.8 1156.64 1650.47 1156.64C1631.69 1156.64 1612.91 1156.64 1593.52 1156.64C1591.09 1156.64 1589.27 1156.64 1587.46 1156.64C1573.52 1157.85 1562.61 1167.55 1559.58 1180.88C1545.04 1253.59 1516.56 1322.06 1474.75 1383.86C1467.48 1394.17 1468.09 1408.1 1474.75 1418.4C1477.18 1422.04 1480.21 1425.67 1484.45 1429.31C1502.02 1446.28 1519.59 1463.85 1537.16 1481.42L1549.89 1494.14C1514.75 1538.98 1474.15 1579.58 1428.7 1614.72C1420.22 1606.24 1411.13 1597.15 1402.65 1588.67C1389.32 1575.34 1376.59 1562.61 1363.26 1549.28C1359.63 1545.65 1355.99 1542.01 1351.75 1539.59C1341.45 1532.92 1328.73 1532.92 1318.43 1539.59C1256.62 1580.79 1188.76 1608.66 1116.65 1622.6C1105.14 1625.02 1096.05 1633.51 1093.02 1645.02C1091.81 1650.47 1091.2 1656.53 1091.2 1663.2C1091.81 1685.01 1091.81 1706.22 1091.81 1728.03C1091.81 1736.51 1091.81 1744.39 1091.81 1752.87C1036.67 1759.54 979.713 1759.54 923.968 1752.87C923.968 1744.39 923.968 1736.51 923.968 1728.03C923.968 1706.22 923.968 1685.01 924.574 1663.2C924.574 1656.53 923.968 1650.47 922.756 1645.02C919.726 1633.51 910.637 1624.42 899.125 1622.6C826.414 1608.66 758.55 1580.79 697.351 1539.59C687.051 1532.92 674.326 1532.92 664.025 1539.59C659.784 1542.01 656.148 1545.65 652.513 1549.28C639.788 1562.61 626.458 1575.94 613.128 1588.67C604.645 1597.15 595.556 1605.63 587.073 1614.72C541.628 1579.58 501.031 1538.98 465.887 1494.14L478.612 1481.42C496.184 1463.85 513.15 1446.28 531.328 1429.31C534.963 1425.67 537.993 1422.04 540.416 1418.4C547.688 1408.1 547.688 1394.77 540.416 1383.86C498.608 1322.06 470.129 1253.59 455.587 1180.88C453.163 1167.55 441.65 1157.25 427.714 1156.64C425.896 1156.64 423.473 1156.04 421.049 1156.64C402.265 1156.64 383.482 1156.64 364.698 1156.64C351.367 1156.64 338.643 1156.64 324.707 1156.64C321.071 1128.16 319.253 1099.08 319.253 1070.6C319.253 1041.52 321.071 1012.43 324.707 983.954H328.948C356.215 983.954 384.693 983.954 412.566 984.56C420.443 984.56 427.108 983.954 433.167 982.742C444.68 979.712 453.163 970.623 454.981 959.111C469.523 887.611 497.396 820.353 537.993 759.155C544.658 748.854 544.658 736.13 538.599 725.829C534.357 719.164 528.904 713.711 521.633 706.439L509.514 694.321C494.366 679.173 479.218 664.025 464.07 648.876C499.819 602.22 541.022 561.623 587.073 525.873C592.526 531.327 598.585 537.386 604.039 542.839C619.187 557.988 634.335 573.136 648.877 588.284C653.119 592.525 659.784 598.585 668.873 602.826C678.568 607.068 689.474 605.856 697.957 600.402C759.156 559.805 826.414 531.933 898.519 517.996C910.031 515.573 919.12 507.09 922.15 496.183C923.362 490.73 923.968 485.276 923.968 478.611C923.362 464.675 923.362 451.344 923.968 437.408V418.624C923.968 417.413 923.968 416.201 923.968 414.989V401.659C923.968 396.811 923.968 391.964 923.968 387.116C979.713 380.451 1036.06 380.451 1091.81 387.116C1091.81 391.964 1091.81 396.811 1091.81 401.659V414.989C1091.81 416.201 1091.81 417.413 1091.81 418.624V437.408C1091.81 451.344 1091.81 464.675 1091.81 478.611C1091.81 485.276 1092.42 490.73 1093.63 496.183C1096.66 507.09 1105.75 516.179 1117.26 517.996C1189.36 531.933 1256.62 559.805 1317.82 600.402C1326.3 605.856 1337.21 607.068 1346.9 602.826C1355.99 598.585 1362.66 592.525 1366.9 588.284C1381.44 573.136 1396.59 557.988 1411.74 542.839C1417.19 537.386 1423.25 531.327 1428.7 525.873C1474.75 561.623 1515.96 602.22 1551.1 647.665C1535.95 662.813 1520.8 677.961 1505.66 693.109L1493.54 705.228C1486.27 712.499 1480.81 717.952 1476.57 724.617C1469.91 734.918 1470.51 747.642 1477.18 757.943C1517.78 819.142 1545.65 886.399 1560.19 957.899C1562.61 969.411 1571.1 978.5 1582 981.53C1588.06 983.348 1594.73 983.954 1602.61 983.348C1630.48 982.136 1658.96 982.742 1686.22 982.742H1690.46C1694.1 1011.22 1695.92 1040.91 1695.92 1069.39C1695.92 1099.69 1694.1 1128.16 1690.46 1156.64Z" fill="white"/>
<mask id="mask0" mask-type="alpha" maskUnits="userSpaceOnUse" x="1024" y="271" width="524" height="415">
<rect x="1024" y="271" width="524" height="415" fill="#C4C4C4"/>
</mask>
<g mask="url(#mask0)">
<path d="M1746.82 948.204C1744.39 934.268 1732.27 923.361 1718.34 922.755C1717.73 922.755 1715.31 922.755 1714.7 922.755H1686.83C1663.2 922.755 1638.96 922.755 1614.72 922.755C1599.58 859.739 1574.73 800.358 1540.8 744.613L1549.28 736.13C1570.49 714.922 1591.7 693.109 1613.51 672.508C1624.42 662.207 1625.63 645.241 1617.15 633.122C1569.28 566.47 1511.11 508.907 1444.46 461.039C1432.34 452.556 1415.37 453.768 1405.07 464.675C1393.56 476.793 1381.44 488.306 1369.93 499.819C1357.2 511.937 1345.09 524.662 1332.97 537.386C1277.22 503.454 1217.24 479.217 1154.22 464.069C1154.22 455.586 1154.22 446.497 1154.22 438.014V423.472C1154.22 422.26 1154.22 421.048 1154.22 419.836V402.264C1154.22 389.54 1154.22 376.21 1154.22 361.667C1154.22 346.519 1143.31 333.795 1128.77 331.371C1050 318.647 968.2 318.647 889.43 331.371C874.282 333.795 863.375 347.731 863.981 363.485C864.587 376.21 864.587 389.54 863.981 402.264V419.836C863.981 421.048 863.981 422.26 863.981 423.472V438.014C863.981 447.103 863.981 455.586 863.981 464.069C800.965 479.217 740.978 503.454 685.233 537.386C673.114 524.662 660.39 512.543 648.271 499.819C636.759 488.306 624.64 476.187 613.128 464.675C602.827 453.768 585.861 452.556 573.742 461.039C507.09 508.907 448.922 567.076 401.053 633.122C391.964 645.241 393.782 662.207 404.689 672.508C426.502 693.715 447.71 714.922 468.917 736.13L477.4 744.613C443.468 799.752 418.625 859.739 403.477 922.755C379.24 922.149 355.003 922.149 331.372 922.755H303.499C302.893 922.755 300.47 922.755 299.864 922.755C285.321 923.361 273.203 934.268 271.385 948.204C264.72 988.195 261.69 1029.4 261.69 1070.6C261.69 1111.2 264.72 1152.4 271.385 1192.39C273.809 1206.33 284.716 1216.63 298.652 1217.84C301.076 1217.84 304.105 1218.45 306.529 1218.45C327.13 1218.45 347.126 1218.45 367.727 1218.45C379.846 1218.45 391.964 1218.45 404.083 1218.45C419.231 1282.07 444.68 1342.66 479.218 1398.41C465.282 1411.74 451.345 1425.67 438.015 1439.61L414.99 1462.64C411.354 1466.27 408.325 1469.3 405.901 1471.72C396.206 1482.63 394.994 1498.38 403.477 1509.9C451.345 1575.94 508.908 1632.9 574.954 1680.77C586.467 1689.25 602.827 1688.04 613.128 1678.34C614.339 1677.13 615.551 1675.92 616.157 1675.32C630.093 1660.77 644.03 1646.84 657.966 1632.9C667.055 1623.81 676.75 1614.12 685.839 1605.03C741.584 1638.96 801.571 1663.8 865.193 1678.95C865.193 1695.92 865.193 1712.88 865.193 1730.45C865.193 1746.81 865.193 1762.57 865.193 1779.53C865.193 1780.14 865.193 1783.17 865.193 1783.78C865.799 1797.71 876.705 1809.83 890.642 1811.65C929.421 1817.71 970.018 1821.34 1010.01 1821.34C1050 1821.34 1089.99 1818.31 1129.38 1811.65C1143.31 1809.23 1154.22 1797.71 1154.83 1783.78C1154.83 1783.17 1154.83 1779.53 1154.83 1778.93C1154.83 1762.57 1154.83 1746.81 1154.83 1730.45C1154.83 1713.49 1154.83 1696.52 1154.83 1678.95C1218.45 1663.8 1278.43 1638.96 1334.18 1605.03C1343.27 1614.72 1352.96 1623.81 1362.05 1632.9C1375.99 1646.84 1389.92 1660.77 1403.86 1674.71C1405.07 1675.92 1406.28 1677.13 1407.5 1678.34C1418.4 1688.04 1434.16 1689.25 1445.67 1680.77C1511.72 1633.51 1569.89 1575.94 1617.15 1509.9C1625.63 1498.38 1624.42 1482.02 1614.72 1471.72C1612.3 1469.3 1609.27 1465.66 1605.63 1462.64L1582.61 1439.61C1569.28 1426.28 1555.34 1412.34 1541.41 1398.41C1575.94 1342.66 1600.79 1282.07 1616.54 1218.45C1628.66 1218.45 1640.78 1218.45 1652.9 1218.45C1673.5 1218.45 1693.49 1218.45 1713.49 1218.45C1716.52 1218.45 1719.55 1218.45 1721.97 1218.45C1735.91 1217.24 1746.82 1206.93 1749.24 1193C1755.9 1153.01 1758.93 1112.41 1758.93 1071.21C1756.51 1029.4 1753.48 988.801 1746.82 948.204ZM1690.46 1156.64C1677.13 1156.64 1663.8 1156.64 1650.47 1156.64C1631.69 1156.64 1612.91 1156.64 1593.52 1156.64C1591.09 1156.64 1589.27 1156.64 1587.46 1156.64C1573.52 1157.85 1562.61 1167.55 1559.58 1180.88C1545.04 1253.59 1516.56 1322.06 1474.75 1383.86C1467.48 1394.17 1468.09 1408.1 1474.75 1418.4C1477.18 1422.04 1480.21 1425.67 1484.45 1429.31C1502.02 1446.28 1519.59 1463.85 1537.16 1481.42L1549.89 1494.14C1514.75 1538.98 1474.15 1579.58 1428.7 1614.72C1420.22 1606.24 1411.13 1597.15 1402.65 1588.67C1389.32 1575.34 1376.59 1562.61 1363.26 1549.28C1359.63 1545.65 1355.99 1542.01 1351.75 1539.59C1341.45 1532.92 1328.73 1532.92 1318.43 1539.59C1256.62 1580.79 1188.76 1608.66 1116.65 1622.6C1105.14 1625.02 1096.05 1633.51 1093.02 1645.02C1091.81 1650.47 1091.2 1656.53 1091.2 1663.2C1091.81 1685.01 1091.81 1706.22 1091.81 1728.03C1091.81 1736.51 1091.81 1744.39 1091.81 1752.87C1036.67 1759.54 979.713 1759.54 923.968 1752.87C923.968 1744.39 923.968 1736.51 923.968 1728.03C923.968 1706.22 923.968 1685.01 924.574 1663.2C924.574 1656.53 923.968 1650.47 922.756 1645.02C919.726 1633.51 910.637 1624.42 899.125 1622.6C826.414 1608.66 758.55 1580.79 697.351 1539.59C687.051 1532.92 674.326 1532.92 664.025 1539.59C659.784 1542.01 656.148 1545.65 652.513 1549.28C639.788 1562.61 626.458 1575.94 613.128 1588.67C604.645 1597.15 595.556 1605.63 587.073 1614.72C541.628 1579.58 501.031 1538.98 465.887 1494.14L478.612 1481.42C496.184 1463.85 513.15 1446.28 531.328 1429.31C534.963 1425.67 537.993 1422.04 540.416 1418.4C547.688 1408.1 547.688 1394.77 540.416 1383.86C498.608 1322.06 470.129 1253.59 455.587 1180.88C453.163 1167.55 441.65 1157.25 427.714 1156.64C425.896 1156.64 423.473 1156.04 421.049 1156.64C402.265 1156.64 383.482 1156.64 364.698 1156.64C351.367 1156.64 338.643 1156.64 324.707 1156.64C321.071 1128.16 319.253 1099.08 319.253 1070.6C319.253 1041.52 321.071 1012.43 324.707 983.954H328.948C356.215 983.954 384.693 983.954 412.566 984.56C420.443 984.56 427.108 983.954 433.167 982.742C444.68 979.712 453.163 970.623 454.981 959.111C469.523 887.611 497.396 820.353 537.993 759.155C544.658 748.854 544.658 736.13 538.599 725.829C534.357 719.164 528.904 713.711 521.633 706.439L509.514 694.321C494.366 679.173 479.218 664.025 464.07 648.876C499.819 602.22 541.022 561.623 587.073 525.873C592.526 531.327 598.585 537.386 604.039 542.839C619.187 557.988 634.335 573.136 648.877 588.284C653.119 592.525 659.784 598.585 668.873 602.826C678.568 607.068 689.474 605.856 697.957 600.402C759.156 559.805 826.414 531.933 898.519 517.996C910.031 515.573 919.12 507.09 922.15 496.183C923.362 490.73 923.968 485.276 923.968 478.611C923.362 464.675 923.362 451.344 923.968 437.408V418.624C923.968 417.413 923.968 416.201 923.968 414.989V401.659C923.968 396.811 923.968 391.964 923.968 387.116C979.713 380.451 1036.06 380.451 1091.81 387.116C1091.81 391.964 1091.81 396.811 1091.81 401.659V414.989C1091.81 416.201 1091.81 417.413 1091.81 418.624V437.408C1091.81 451.344 1091.81 464.675 1091.81 478.611C1091.81 485.276 1092.42 490.73 1093.63 496.183C1096.66 507.09 1105.75 516.179 1117.26 517.996C1189.36 531.933 1256.62 559.805 1317.82 600.402C1326.3 605.856 1337.21 607.068 1346.9 602.826C1355.99 598.585 1362.66 592.525 1366.9 588.284C1381.44 573.136 1396.59 557.988 1411.74 542.839C1417.19 537.386 1423.25 531.327 1428.7 525.873C1474.75 561.623 1515.96 602.22 1551.1 647.665C1535.95 662.813 1520.8 677.961 1505.66 693.109L1493.54 705.228C1486.27 712.499 1480.81 717.952 1476.57 724.617C1469.91 734.918 1470.51 747.642 1477.18 757.943C1517.78 819.142 1545.65 886.399 1560.19 957.899C1562.61 969.411 1571.1 978.5 1582 981.53C1588.06 983.348 1594.73 983.954 1602.61 983.348C1630.48 982.136 1658.96 982.742 1686.22 982.742H1690.46C1694.1 1011.22 1695.92 1040.91 1695.92 1069.39C1695.92 1099.69 1694.1 1128.16 1690.46 1156.64Z" fill="#1A237E"/>
</g>
<mask id="mask1" mask-type="alpha" maskUnits="userSpaceOnUse" x="1309" y="336" width="422" height="573">
<rect x="1309" y="420" width="283.494" height="511.472" transform="rotate(-17.1066 1309 420)" fill="#C9A833"/>
</mask>
<g mask="url(#mask1)">
<path d="M1746.82 948.204C1744.39 934.268 1732.27 923.361 1718.34 922.755C1717.73 922.755 1715.31 922.755 1714.7 922.755H1686.83C1663.2 922.755 1638.96 922.755 1614.72 922.755C1599.58 859.739 1574.73 800.358 1540.8 744.613L1549.28 736.13C1570.49 714.922 1591.7 693.109 1613.51 672.508C1624.42 662.207 1625.63 645.241 1617.15 633.122C1569.28 566.47 1511.11 508.907 1444.46 461.039C1432.34 452.556 1415.37 453.768 1405.07 464.675C1393.56 476.793 1381.44 488.306 1369.93 499.819C1357.21 511.937 1345.09 524.662 1332.97 537.386C1277.22 503.454 1217.24 479.217 1154.22 464.069C1154.22 455.586 1154.22 446.497 1154.22 438.014V423.472C1154.22 422.26 1154.22 421.048 1154.22 419.836V402.264C1154.22 389.54 1154.22 376.21 1154.22 361.667C1154.22 346.519 1143.31 333.795 1128.77 331.371C1050 318.647 968.2 318.647 889.43 331.371C874.282 333.795 863.375 347.731 863.981 363.485C864.587 376.21 864.587 389.54 863.981 402.264V419.836C863.981 421.048 863.981 422.26 863.981 423.472V438.014C863.981 447.103 863.981 455.586 863.981 464.069C800.965 479.217 740.978 503.454 685.233 537.386C673.114 524.662 660.39 512.543 648.271 499.819C636.759 488.306 624.64 476.187 613.128 464.675C602.827 453.768 585.861 452.556 573.742 461.039C507.091 508.907 448.922 567.076 401.053 633.122C391.965 645.241 393.782 662.207 404.689 672.508C426.502 693.715 447.71 714.922 468.917 736.13L477.4 744.613C443.468 799.752 418.625 859.739 403.477 922.755C379.24 922.149 355.003 922.149 331.372 922.755H303.499C302.893 922.755 300.47 922.755 299.864 922.755C285.322 923.361 273.203 934.268 271.385 948.204C264.72 988.195 261.69 1029.4 261.69 1070.6C261.69 1111.2 264.72 1152.4 271.385 1192.39C273.809 1206.33 284.716 1216.63 298.652 1217.84C301.076 1217.84 304.105 1218.45 306.529 1218.45C327.13 1218.45 347.126 1218.45 367.728 1218.45C379.846 1218.45 391.965 1218.45 404.083 1218.45C419.231 1282.07 444.68 1342.66 479.218 1398.41C465.282 1411.74 451.345 1425.67 438.015 1439.61L414.99 1462.64C411.354 1466.27 408.325 1469.3 405.901 1471.72C396.206 1482.63 394.994 1498.38 403.477 1509.9C451.345 1575.94 508.908 1632.9 574.954 1680.77C586.467 1689.25 602.827 1688.04 613.128 1678.34C614.339 1677.13 615.551 1675.92 616.157 1675.32C630.094 1660.77 644.03 1646.84 657.966 1632.9C667.055 1623.81 676.75 1614.12 685.839 1605.03C741.584 1638.96 801.571 1663.8 865.193 1678.95C865.193 1695.92 865.193 1712.88 865.193 1730.45C865.193 1746.81 865.193 1762.57 865.193 1779.53C865.193 1780.14 865.193 1783.17 865.193 1783.78C865.799 1797.71 876.705 1809.83 890.642 1811.65C929.421 1817.71 970.018 1821.34 1010.01 1821.34C1050 1821.34 1089.99 1818.31 1129.38 1811.65C1143.31 1809.23 1154.22 1797.71 1154.83 1783.78C1154.83 1783.17 1154.83 1779.53 1154.83 1778.93C1154.83 1762.57 1154.83 1746.81 1154.83 1730.45C1154.83 1713.49 1154.83 1696.52 1154.83 1678.95C1218.45 1663.8 1278.43 1638.96 1334.18 1605.03C1343.27 1614.72 1352.96 1623.81 1362.05 1632.9C1375.99 1646.84 1389.92 1660.77 1403.86 1674.71C1405.07 1675.92 1406.29 1677.13 1407.5 1678.34C1418.4 1688.04 1434.16 1689.25 1445.67 1680.77C1511.72 1633.51 1569.89 1575.94 1617.15 1509.9C1625.63 1498.38 1624.42 1482.02 1614.72 1471.72C1612.3 1469.3 1609.27 1465.66 1605.63 1462.64L1582.61 1439.61C1569.28 1426.28 1555.34 1412.34 1541.41 1398.41C1575.94 1342.66 1600.79 1282.07 1616.54 1218.45C1628.66 1218.45 1640.78 1218.45 1652.9 1218.45C1673.5 1218.45 1693.49 1218.45 1713.49 1218.45C1716.52 1218.45 1719.55 1218.45 1721.97 1218.45C1735.91 1217.24 1746.82 1206.93 1749.24 1193C1755.9 1153.01 1758.93 1112.41 1758.93 1071.21C1756.51 1029.4 1753.48 988.801 1746.82 948.204ZM1690.46 1156.64C1677.13 1156.64 1663.8 1156.64 1650.47 1156.64C1631.69 1156.64 1612.91 1156.64 1593.52 1156.64C1591.09 1156.64 1589.27 1156.64 1587.46 1156.64C1573.52 1157.85 1562.61 1167.55 1559.58 1180.88C1545.04 1253.59 1516.56 1322.06 1474.75 1383.86C1467.48 1394.17 1468.09 1408.1 1474.75 1418.4C1477.18 1422.04 1480.21 1425.67 1484.45 1429.31C1502.02 1446.28 1519.59 1463.85 1537.17 1481.42L1549.89 1494.14C1514.75 1538.98 1474.15 1579.58 1428.7 1614.72C1420.22 1606.24 1411.13 1597.15 1402.65 1588.67C1389.32 1575.34 1376.59 1562.61 1363.26 1549.28C1359.63 1545.65 1355.99 1542.01 1351.75 1539.59C1341.45 1532.92 1328.73 1532.92 1318.43 1539.59C1256.62 1580.79 1188.76 1608.66 1116.65 1622.6C1105.14 1625.02 1096.05 1633.51 1093.02 1645.02C1091.81 1650.47 1091.2 1656.53 1091.2 1663.2C1091.81 1685.01 1091.81 1706.22 1091.81 1728.03C1091.81 1736.51 1091.81 1744.39 1091.81 1752.87C1036.67 1759.54 979.713 1759.54 923.968 1752.87C923.968 1744.39 923.968 1736.51 923.968 1728.03C923.968 1706.22 923.968 1685.01 924.574 1663.2C924.574 1656.53 923.968 1650.47 922.756 1645.02C919.726 1633.51 910.637 1624.42 899.125 1622.6C826.414 1608.66 758.55 1580.79 697.351 1539.59C687.051 1532.92 674.326 1532.92 664.025 1539.59C659.784 1542.01 656.148 1545.65 652.513 1549.28C639.788 1562.61 626.458 1575.94 613.128 1588.67C604.645 1597.15 595.556 1605.63 587.073 1614.72C541.628 1579.58 501.031 1538.98 465.888 1494.14L478.612 1481.42C496.184 1463.85 513.15 1446.28 531.328 1429.31C534.963 1425.67 537.993 1422.04 540.416 1418.4C547.688 1408.1 547.688 1394.77 540.416 1383.86C498.608 1322.06 470.129 1253.59 455.587 1180.88C453.163 1167.55 441.651 1157.25 427.714 1156.64C425.896 1156.64 423.473 1156.04 421.049 1156.64C402.265 1156.64 383.482 1156.64 364.698 1156.64C351.368 1156.64 338.643 1156.64 324.707 1156.64C321.071 1128.16 319.253 1099.08 319.253 1070.6C319.253 1041.52 321.071 1012.43 324.707 983.954H328.948C356.215 983.954 384.693 983.954 412.566 984.56C420.443 984.56 427.108 983.954 433.168 982.742C444.68 979.712 453.163 970.623 454.981 959.111C469.523 887.611 497.396 820.353 537.993 759.155C544.658 748.854 544.658 736.13 538.599 725.829C534.357 719.164 528.904 713.711 521.633 706.439L509.514 694.321C494.366 679.173 479.218 664.025 464.07 648.876C499.819 602.22 541.022 561.623 587.073 525.873C592.526 531.327 598.585 537.386 604.039 542.839C619.187 557.988 634.335 573.136 648.877 588.284C653.119 592.525 659.784 598.585 668.873 602.826C678.568 607.068 689.474 605.856 697.957 600.402C759.156 559.805 826.414 531.933 898.519 517.996C910.031 515.573 919.12 507.09 922.15 496.183C923.362 490.73 923.968 485.276 923.968 478.611C923.362 464.675 923.362 451.344 923.968 437.408V418.624C923.968 417.413 923.968 416.201 923.968 414.989V401.659C923.968 396.811 923.968 391.964 923.968 387.116C979.713 380.451 1036.06 380.451 1091.81 387.116C1091.81 391.964 1091.81 396.811 1091.81 401.659V414.989C1091.81 416.201 1091.81 417.413 1091.81 418.624V437.408C1091.81 451.344 1091.81 464.675 1091.81 478.611C1091.81 485.276 1092.42 490.73 1093.63 496.183C1096.66 507.09 1105.75 516.179 1117.26 517.996C1189.36 531.933 1256.62 559.805 1317.82 600.402C1326.3 605.856 1337.21 607.068 1346.9 602.826C1355.99 598.585 1362.66 592.525 1366.9 588.284C1381.44 573.136 1396.59 557.988 1411.74 542.839C1417.19 537.386 1423.25 531.327 1428.7 525.873C1474.75 561.623 1515.96 602.22 1551.1 647.665C1535.95 662.813 1520.81 677.961 1505.66 693.109L1493.54 705.228C1486.27 712.499 1480.81 717.952 1476.57 724.617C1469.91 734.918 1470.51 747.642 1477.18 757.943C1517.78 819.142 1545.65 886.399 1560.19 957.899C1562.61 969.411 1571.1 978.5 1582 981.53C1588.06 983.348 1594.73 983.954 1602.61 983.348C1630.48 982.136 1658.96 982.742 1686.22 982.742H1690.46C1694.1 1011.22 1695.92 1040.91 1695.92 1069.39C1695.92 1099.69 1694.1 1128.16 1690.46 1156.64Z" fill="#1A237E"/>
</g>
</g>
<path d="M1432.89 1009.42C1435.07 1028.86 1436.65 1048.23 1436.65 1068.19C1436.65 1306.47 1243.63 1499.49 1005.35 1499.49C767.065 1499.49 574.044 1306.47 574.044 1068.19C574.044 829.905 767.065 636.884 1005.35 636.884C1048.49 636.884 1089.47 643.342 1128.8 654.672" stroke="white" stroke-width="25" stroke-miterlimit="10"/>
<path d="M1113.19 313.363C1113.19 313.363 1382.76 636.884 1221.03 1068.19C1059.3 1499.49 911.771 1489.22 911.771 1489.22" stroke="white" stroke-width="25" stroke-miterlimit="10"/>
<path d="M1598.44 313.363C1598.44 313.363 1760.17 475.094 1652.33 636.884C1544.49 798.674 1328.81 744.725 1328.81 744.725C1328.81 744.725 1274.92 582.993 1382.7 475.153C1468 389.855 1544.49 421.203 1598.44 313.363Z" stroke="white" stroke-width="25" stroke-miterlimit="10"/>
<rect x="407.088" y="202" width="1408.91" height="1408.91" stroke="black"/>
<defs>
<clipPath id="clip0">
<rect width="1551.17" height="1551.17" fill="white" transform="translate(232 295.016)"/>
</clipPath>
</defs>
</svg>
